# xmcd CD database file
#
# Track frame offsets:
#	150
#	19432
#	33482
#	48625
#	66732
#	84225
#	97872
#	112900
#	125037
#	136700
#	155400
#
# Disc length: 2231 seconds
#
# Revision: 2
# Processed by: cddbd v1.4PL0 Copyright (c) Steve Scherf et al.
# Submitted via: CDex 1.40Release
#
DISCID=9108b50b
DTITLE=Leonard Cohen - New Skin for the Old Ceremony
DYEAR=1974
DGENRE=Folk-Rock
TTITLE0=Is This What You Wanted
TTITLE1=Chelsea Hotel N.2
TTITLE2=Lover Lover Lover
TTITLE3=Field Commander Cohen
TTITLE4=Why Don't You Try
TTITLE5=There Is a War
TTITLE6=A Singer Must Die
TTITLE7=I Tried to Leave You
TTITLE8=Who by Fire
TTITLE9=Take This Longing
TTITLE10=Leaving Green Sleeves
EXTD=YEAR: 1974 ID3G: 81
EXTT0=
EXTT1=
EXTT2=
EXTT3=
EXTT4=
EXTT5=
EXTT6=
EXTT7=
EXTT8=
EXTT9=
EXTT10=
PLAYORDER=
